# xmcd CD database file
#
# Track frame offsets:
#	150
#	18035
#	35580
#	50157
#	65577
#	77890
#	94937
#	112365
#	128557
#	143202
#	158632
#	173975
#	196635
#	216432
#
# Disc length: 3007 seconds
#
# Revision: 0
# Processed by: cddbd v1.5.1PL0 Copyright (c) Steve Scherf et al.
# Submitted via: CDex 1.51
#
DISCID=c80bbd0e
DTITLE=Jan Preston - My Room of Pianos
DYEAR=1999
DGENRE=Blues
TTITLE0=Angel (Having Trouble with my Wings)
TTITLE1=Blood from a Stone
TTITLE2=My Room of Pianos
TTITLE3=Eat Chocolate and Cry
TTITLE4=Don't Mess with my Man
TTITLE5=Pain in my Heart
TTITLE6=Middle of the Night
TTITLE7=Can't Get You Back
TTITLE8=Out of the House
TTITLE9=My Mother's Keeper
TTITLE10=Ugly Papa
TTITLE11=The Women's Room
TTITLE12=To Feel You
TTITLE13=Motherless Child
EXTD=YEAR: 1999
EXTT0=
EXTT1=
EXTT2=
EXTT3=
EXTT4=
EXTT5=
EXTT6=
EXTT7=
EXTT8=
EXTT9=
EXTT10=
EXTT11=
EXTT12=
EXTT13=
PLAYORDER=
